<?xml version="1.0" encoding="UTF-8" standalone="no"?>
<svg
   width="60"
   height="60"
   viewBox="0 0 60 60"
   fill="none"
   version="1.1"
   id="svg18"
   sodipodi:docname="logo.svg"
   inkscape:version="1.4 (86a8ad7, 2024-10-11)"
   xmlns:inkscape="http://www.inkscape.org/namespaces/inkscape"
   xmlns:sodipodi="http://sodipodi.sourceforge.net/DTD/sodipodi-0.dtd"
   xmlns="http://www.w3.org/2000/svg"
   xmlns:svg="http://www.w3.org/2000/svg">
  <sodipodi:namedview
     id="namedview18"
     pagecolor="#ffffff"
     bordercolor="#000000"
     borderopacity="0.25"
     inkscape:showpageshadow="2"
     inkscape:pageopacity="0.0"
     inkscape:pagecheckerboard="0"
     inkscape:deskcolor="#d1d1d1"
     inkscape:zoom="6.7929921"
     inkscape:cx="-0.073605267"
     inkscape:cy="27.160344"
     inkscape:window-width="1920"
     inkscape:window-height="1057"
     inkscape:window-x="-8"
     inkscape:window-y="-8"
     inkscape:window-maximized="1"
     inkscape:current-layer="svg18" />
  <g
     filter="url(#filter1_d_1_705)"
     id="g3"
     style="display:inline;fill-rule:nonzero;filter:url(#filter54)"
     transform="translate(-10.982142,-10.005069)">
    <path
       fill-rule="evenodd"
       clip-rule="evenodd"
       d="M 41,70 C 57.5685,70 71,56.5685 71,40 71,23.4315 57.5685,10 41,10 24.4315,10 11,23.4315 11,40 11,56.5685 24.4315,70 41,70 Z"
       fill="#2196f3"
       id="path2"
       style="display:inline;fill-rule:nonzero;stroke:none" />
    <path
       d="M 41,12 C 56.464,12 69,24.536 69,40 69,55.464 56.464,68 41,68 25.536,68 13,55.464 13,40 13,24.536 25.536,12 41,12 Z"
       stroke-width="4"
       id="path3"
       style="display:inline;mix-blend-mode:normal;fill-rule:nonzero;stroke-width:4;stroke-linecap:butt;stroke-miterlimit:4;stroke-dasharray:none;opacity:1;stroke:#42a5f5;stroke-opacity:1"
       stroke="#42a5f5" />
  </g>
  <mask
     id="mask0_1_705"
     maskUnits="userSpaceOnUse"
     x="11"
     y="10"
     width="60"
     height="60">
    <path
       fill-rule="evenodd"
       clip-rule="evenodd"
       d="M 41,70 C 57.5685,70 71,56.5685 71,40 71,23.4315 57.5685,10 41,10 24.4315,10 11,23.4315 11,40 11,56.5685 24.4315,70 41,70 Z"
       fill="#ffffff"
       id="path4" />
  </mask>
  <g
     mask="url(#mask0_1_705)"
     id="g8"
     style="display:inline;fill-rule:nonzero"
     transform="translate(-10.982142,-10.005069)">
    <path
       d="M 13.714,32.875 H 67.536"
       stroke-width="4"
       stroke-linecap="square"
       id="path5"
       style="fill-rule:nonzero"
       stroke="#42a5f5" />
    <path
       d="M 13.714,48.625 H 67.536"
       stroke-width="4"
       stroke-linecap="square"
       id="path6"
       style="fill-rule:nonzero"
       stroke="#42a5f5" />
    <path
       d="m 40.25,14.5 c 0,0 -9.9622,11.5775 -9.7465,26.25 C 30.7191,55.4225 40.25,65.5 40.25,65.5"
       stroke-width="4"
       stroke-linecap="round"
       stroke-linejoin="round"
       id="path7"
       style="fill-rule:nonzero"
       stroke="#42a5f5" />
    <path
       d="m 41,14.5 c 0,0 9.9622,11.5775 9.7465,26.25 C 50.5309,55.4225 41,65.5 41,65.5"
       stroke-width="4"
       stroke-linecap="round"
       stroke-linejoin="round"
       id="path8"
       style="fill-rule:nonzero"
       stroke="#42a5f5" />
  </g>
  <path
     fill-rule="evenodd"
     clip-rule="evenodd"
     d="m 40.212458,19.022731 c 0.2,-0.1155 0.4205,-0.1872 0.651,-0.2017 1.0165,-0.064 3.9524,-0.1481 4.5891,0.9548 0.6368,1.1029 -0.9049,3.6028 -1.4687,4.4505 -0.1277,0.1921 -0.3,0.347 -0.4998,0.4624 l -6.0758,3.5078 0.8439,17.1004 c 0.0118,0.2394 -0.1093,0.4659 -0.315,0.5891 l -1.2493,0.7482 c -0.1645,0.0986 -0.3643,0.1193 -0.5456,0.0567 l -0.9468,-0.327 c -0.1586,-0.0547 -0.2899,-0.1688 -0.3662,-0.3182 l -6.458,-12.6316 -6.3691,3.6772 -0.6869,4.6714 c -0.0476,0.3234 -0.3281,0.561 -0.6548,0.5548 l -0.498,-0.0094 c -0.2519,-0.0048 -0.4783,-0.1549 -0.5808,-0.385 l -1.7897,-4.016 c -1.2302,0.0393 -2.385,-0.0816 -2.6949,-0.6182 -0.3095,-0.5361 0.1637,-1.5919 0.8138,-2.6329 l -2.5635,-3.531 c -0.148,-0.2038 -0.1647,-0.4749 -0.0429,-0.6954 l 0.2408,-0.436 c 0.158,-0.2861 0.504,-0.4101 0.8078,-0.2897 l 4.3622,1.7302 6.3805,-3.6837 -7.6587,-11.8288 c -0.0912,-0.1409 -0.1244,-0.3115 -0.0925,-0.4763 l 0.1903,-0.9835 c 0.0364,-0.1883 0.1542,-0.3509 0.3219,-0.4441 l 1.2726,-0.7078 c 0.2095,-0.1166 0.4662,-0.1082 0.6676,0.0218 l 14.2977,9.2231 z"
     fill="#ffffff"
     id="path9"
     style="display:inline;fill-rule:nonzero" />
  <mask
     id="mask1_1_705"
     maskUnits="userSpaceOnUse"
     x="24"
     y="23"
     width="33"
     height="34">
    <path
       fill-rule="evenodd"
       clip-rule="evenodd"
       d="m 51.1946,29.0278 c 0.2,-0.1155 0.4205,-0.1872 0.651,-0.2017 1.0165,-0.064 3.9524,-0.1481 4.5891,0.9548 0.6368,1.1029 -0.9049,3.6028 -1.4687,4.4505 -0.1277,0.1921 -0.3,0.347 -0.4998,0.4624 l -6.0758,3.5078 0.8439,17.1004 c 0.0118,0.2394 -0.1093,0.4659 -0.315,0.5891 L 47.67,56.6393 c -0.1645,0.0986 -0.3643,0.1193 -0.5456,0.0567 L 46.1776,56.369 C 46.019,56.3143 45.8877,56.2002 45.8114,56.0508 l -6.458,-12.6316 -6.3691,3.6772 -0.6869,4.6714 c -0.0476,0.3234 -0.3281,0.561 -0.6548,0.5548 l -0.498,-0.0094 c -0.2519,-0.0048 -0.4783,-0.1549 -0.5808,-0.385 l -1.7897,-4.016 c -1.2302,0.0393 -2.385,-0.0816 -2.6949,-0.6182 -0.3095,-0.5361 0.1637,-1.5919 0.8138,-2.6329 l -2.5635,-3.531 c -0.148,-0.2038 -0.1647,-0.4749 -0.0429,-0.6954 l 0.2408,-0.436 c 0.158,-0.2861 0.504,-0.4101 0.8078,-0.2897 l 4.3622,1.7302 6.3805,-3.6837 -7.6587,-11.8288 C 28.328,25.7858 28.2948,25.6152 28.3267,25.4504 l 0.1903,-0.9835 c 0.0364,-0.1883 0.1542,-0.3509 0.3219,-0.4441 l 1.2726,-0.7078 c 0.2095,-0.1166 0.4662,-0.1082 0.6676,0.0218 l 14.2977,9.2231 z"
       fill="#ffffff"
       id="path10" />
  </mask>
  <g
     mask="url(#mask1_1_705)"
     id="g14"
     style="display:inline;fill-rule:nonzero"
     transform="translate(-10.982142,-10.005069)">
    <rect
       x="45.535999"
       y="30.783899"
       width="1.30853"
       height="12.4084"
       transform="rotate(60,45.536,30.7839)"
       fill="#ebecf2"
       id="rect10"
       style="display:inline;fill-rule:nonzero" />
    <path
       fill-rule="evenodd"
       clip-rule="evenodd"
       d="m 48.9193,55.8911 c 0.2057,-0.1232 0.3267,-0.3496 0.3149,-0.5891 l -0.8714,-17.6594 -9.2364,5.3326 6.6849,13.0756 c 0.0764,0.1494 0.2076,0.2635 0.3662,0.3182 l 0.9469,0.327 c 0.1813,0.0627 0.381,0.0419 0.5456,-0.0567 z"
       fill="#dee1e3"
       id="path11"
       style="display:inline;fill-rule:nonzero" />
    <path
       opacity="0.4"
       fill-rule="evenodd"
       clip-rule="evenodd"
       d="m 28.8366,47.8013 -0.089,0.0514 1.8162,4.0755 c 0.1026,0.2302 0.329,0.3802 0.5809,0.385 l 0.4979,0.0094 c 0.3268,0.0062 0.6072,-0.2314 0.6548,-0.5548 l 0.7256,-4.9344 -0.463,0.2673 c -0.1433,0.0827 -0.2974,0.1445 -0.4589,0.1806 -0.5501,0.1228 -1.9463,0.4138 -3.2645,0.52 z"
       fill="#dee1e3"
       id="path12"
       style="display:inline;fill-rule:nonzero" />
    <path
       fill-rule="evenodd"
       clip-rule="evenodd"
       d="m 39.2482,43.2134 9.1294,-5.2708 0.0992,2.0113 -7.5209,6.5999 z"
       fill="#c5c6cc"
       id="path13"
       style="display:inline;fill-rule:nonzero" />
    <path
       fill-rule="evenodd"
       clip-rule="evenodd"
       d="m 57.4823,32.9524 -29.791,17.1999 c 0,0 -0.879,-1.5887 -1.612,-2.8584 -0.0089,-0.0153 -0.0173,-0.0309 -0.0252,-0.0466 1.3515,0.0977 4.0728,-0.0122 6.712,-1.5359 L 53.3906,33.8038 c 2.2916,-1.3231 2.8529,-3.0364 3.162,-3.7729 0.4786,1.2851 0.9297,2.9215 0.9297,2.9215 z"
       fill="#dee1e3"
       id="path14"
       style="display:inline;fill-rule:nonzero" />
  </g>
  <defs
     id="defs18">
    <filter
       id="filter0_d_1_705"
       x="8"
       y="23"
       width="66"
       height="66"
       filterUnits="userSpaceOnUse"
       color-interpolation-filters="sRGB">
      <feFlood
         flood-opacity="0"
         result="BackgroundImageFix"
         id="feFlood14" />
      <feColorMatrix
         in="SourceAlpha"
         type="matrix"
         values="0 0 0 0 0 0 0 0 0 0 0 0 0 0 0 0 0 0 127 0"
         result="hardAlpha"
         id="feColorMatrix14" />
      <feOffset
         dy="8"
         id="feOffset14" />
      <feGaussianBlur
         stdDeviation="5.5"
         id="feGaussianBlur14" />
      <feColorMatrix
         type="matrix"
         values="0 0 0 0 0.215686 0 0 0 0 0.407843 0 0 0 0 0.556863 0 0 0 0.25 0"
         id="feColorMatrix15" />
      <feBlend
         mode="normal"
         in2="BackgroundImageFix"
         result="effect1_dropShadow_1_705"
         id="feBlend15" />
      <feBlend
         mode="normal"
         in="SourceGraphic"
         in2="effect1_dropShadow_1_705"
         result="shape"
         id="feBlend16" />
    </filter>
    <filter
       id="filter1_d_1_705"
       x="0"
       y="0"
       width="82"
       height="82"
       filterUnits="userSpaceOnUse"
       color-interpolation-filters="sRGB">
      <feFlood
         flood-opacity="0"
         result="BackgroundImageFix"
         id="feFlood16" />
      <feColorMatrix
         in="SourceAlpha"
         type="matrix"
         values="0 0 0 0 0 0 0 0 0 0 0 0 0 0 0 0 0 0 127 0"
         result="hardAlpha"
         id="feColorMatrix16" />
      <feOffset
         dy="1"
         id="feOffset16" />
      <feGaussianBlur
         stdDeviation="5.5"
         id="feGaussianBlur16" />
      <feColorMatrix
         type="matrix"
         values="0 0 0 0 0.215686 0 0 0 0 0.407843 0 0 0 0 0.556863 0 0 0 0.3 0"
         id="feColorMatrix17" />
      <feBlend
         mode="normal"
         in2="BackgroundImageFix"
         result="effect1_dropShadow_1_705"
         id="feBlend17" />
      <feBlend
         mode="normal"
         in="SourceGraphic"
         in2="effect1_dropShadow_1_705"
         result="shape"
         id="feBlend18" />
    </filter>
    <filter
       style="color-interpolation-filters:sRGB;"
       inkscape:label="Drop Shadow"
       id="filter54"
       x="0"
       y="0"
       width="1"
       height="1">
      <feFlood
         result="flood"
         in="SourceGraphic"
         flood-opacity="0.498039"
         flood-color="rgb(0,0,0)"
         id="feFlood53" />
      <feGaussianBlur
         result="blur"
         in="SourceGraphic"
         stdDeviation="0.000000"
         id="feGaussianBlur53" />
      <feOffset
         result="offset"
         in="blur"
         dx="0.000000"
         dy="0.000000"
         id="feOffset53" />
      <feComposite
         result="comp1"
         operator="out"
         in="flood"
         in2="offset"
         id="feComposite53" />
      <feComposite
         result="comp2"
         operator="atop"
         in="comp1"
         in2="SourceGraphic"
         id="feComposite54" />
    </filter>
  </defs>
</svg>
